<svg xmlns="http://www.w3.org/2000/svg" viewBox="0 0 22 12"><path d="M17.55 12a2.89 2.89 0 01-1.55-.48 7.49 7.49 0 01-1.31-1.17c-.32-.33-.86-.89-1.06-.89s-.35.7-.35 1.19a1.27 1.27 0 01-.34.92 1.59 1.59 0 01-.89.38h-1.38a8.16 8.16 0 01-5.45-2.3C2.53 7.1.21 2.2.11 2A1.08 1.08 0 01.22.86a1.45 1.45 0 011-.36H4.3a2 2 0 01.7.25 1.49 1.49 0 01.46.56 15.56 15.56 0 001.08 2c1 1.52 1.39 1.87 1.54 1.95a6.54 6.54 0 00.14-2.18 2.14 2.14 0 00-.19-1 1 1 0 00-.57-.22l-.53-.53c-.07-.5.47-.93.85-1.1a6 6 0 012.3-.23h.52a6.68 6.68 0 011.58.15c1.25.27 1.2 1.32 1.15 2.52v1.6a3.12 3.12 0 00.06 1 6.57 6.57 0 001.52-1.89A15.39 15.39 0 0016 1.24a1.14 1.14 0 011.17-.72L20.3.5h.28c.72 0 1.17.22 1.34.65s.13 1.26-1.72 3.5c-.27.33-.51.62-.72.86a5.67 5.67 0 00-.91 1.22 5.76 5.76 0 00.92.87 10.67 10.67 0 012.22 2.34 1.23 1.23 0 01.19 1.28 1.68 1.68 0 01-1.37.75h-2.78zm-3.89-3.69c.66 0 1.24.6 1.84 1.24a6.5 6.5 0 001.1 1 1.83 1.83 0 001 .32h2.86a1.12 1.12 0 00.39-.1.57.57 0 00-.07-.13 10.13 10.13 0 00-2-2.07C18 7.78 17.52 7.4 17.47 6.8s.37-1.09 1.18-2l.71-.85a7.86 7.86 0 001.51-2.25 2.91 2.91 0 00-.5 0h-3.38a16.33 16.33 0 01-1.2 2.3c-1.39 2.14-2 2.43-2.5 2.44a.79.79 0 01-.42-.12c-.73-.43-.7-1.39-.68-2.1V2.61c.06-1.28 0-1.29-.28-1.35a4.82 4.82 0 00-1.36-.12h-.51a9 9 0 00-1.39.08 1.7 1.7 0 01.19.19 3 3 0 01.44 1.67c.09 1.25 0 2.89-.75 3.28a1 1 0 01-.44.11c-.68 0-1.36-.68-2.51-2.49a16.6 16.6 0 01-1.16-2.2.2.2 0 00-.06-.07.73.73 0 00-.23-.09H1.18c.44.91 2.51 5 4.78 7.17a7.13 7.13 0 004.71 2H12a.49.49 0 00.19-.07v-.08c0-.2 0-2 1.15-2.31a1.35 1.35 0 01.32-.02z"/></svg>