<svg xmlns="http://www.w3.org/2000/svg" viewBox="0 0 69.86 57.07"><path d="M59.62 21.74a25.5 25.5 0 10-27.25 35.05c-.58-2.08-1.16-4.38-1.69-6.82a33.67 33.67 0 004.75 2.54s.12 2.15.28 4.55a25.26 25.26 0 005.29-.47 2.14 2.14 0 010-.76c.29-1.85 1.09-5.21 1.25-7.37a15.34 15.34 0 002.88-3.7v.43c-.56 4.24-1.7 8.77-2.4 10a5.76 5.76 0 01-.82 1.14 24.79 24.79 0 004-1.31 25.49 25.49 0 0013.71-33.28zm-1.47 3.77c-.43.43-1.34.72-1.48-.58s-.2-2.2-.2-2.2-1.92-3.41-2.64-3.46-5.8 3.46-7.14 4.94c-1.16 1.29-1.4 1.2-1.4 3.46 0 1.7.22 8.13.1 13l-8.11 2.16a64.34 64.34 0 01-7.77 1.77l-1-5.8h-.13l-2.57-13.1s-3.81-1.44-5.18-1.82a3.7 3.7 0 00-4 .62 5.09 5.09 0 00-1.73 3.84 6.41 6.41 0 01.48 1.44c.05.48-1.2.43-2 .43s-.91-1.44-.29-3.12A23 23 0 0115 23.4a11.85 11.85 0 012-2.88s.15-.34 1.25-.24 7.25.43 7.25.43v-2.26a144.54 144.54 0 0120.16-1.34c0 .61 0 1.22-.06 1.82a22.52 22.52 0 018.11-2 .89.89 0 01.76.38c.34.43 2.4 3 2.64 3.36a28.83 28.83 0 011.83 3 6.35 6.35 0 01-.79 1.84z" fill="#fdc305"/><path d="M56.21 19.43c.47.59.88 1.12 1 1.28a28.83 28.83 0 011.83 3 6.35 6.35 0 01-.87 1.78c-.43.43-1.34.72-1.48-.58s-.2-2.2-.2-2.2-1.92-3.41-2.64-3.46-5.8 3.46-7.14 4.94c-1.16 1.29-1.4 1.2-1.4 3.46 0 1.49.17 6.62.13 11.17 1.8.21 4.45.71 5.25 1.88 0 0-.29-7.15 7.77-3.41 0 0 .29-9.74 11.42-7.24a43.52 43.52 0 00-13.67-10.62zm-10.47-2.32A90.27 90.27 0 0044.33.65s-.14-1.29-.86-.24a14.22 14.22 0 00-1.2 3.94 70.84 70.84 0 00-12.76.33C28.69 2 27.3.75 26.63 1s-.72 3.31-.72 3.31l-.33 14.1a144.54 144.54 0 0120.16-1.3z" fill="#f06351"/><path d="M45.15 44.76c.13-1.06.2-2.47.24-4l-8.11 2.16a64.34 64.34 0 01-7.77 1.77l1.1 5c0 .11.05.22.07.33a33.67 33.67 0 004.75 2.54 42 42 0 006.84-4.12v.07a15.34 15.34 0 002.88-3.75z" fill="#e55645"/><path d="M31.86 14c-.05-.09 1 .68 1.4.92s.61.43.61.59-.26.34-.62.34-.91-.12-1-.26.6 0 .94 0h.28A8.09 8.09 0 0131.86 14zm7.47.11s-1 1.27-1.09 1.33-.16.34.19.29a8.09 8.09 0 001.22-.28c.1-.06.07-.2-.12-.18s-.68.05-1 .11l.84-1.26s.04-.12-.04-.01zm-3.13 6.08a2.31 2.31 0 001.09-1c.28-.66 0-.92-.44-1a2.43 2.43 0 00-1.74.34c-.4.37-.34.73 0 .95a4.57 4.57 0 001.09.71z"/><path d="M35.79 21.44a2 2 0 01-.45.6 1.83 1.83 0 01-1 .39 2.13 2.13 0 01-1.47-.43 2 2 0 01-.54-.44.89.89 0 00-.35-.25s.75 4.09 2.56 4.74 2.15-.75 2.2-1.13a5.56 5.56 0 00-.82-3.22c-.01-.33-.03-.12-.13-.26z" fill="#f06351"/><path d="M34.15 22.58a3.44 3.44 0 01-2.33-1.42.14.14 0 010-.2.14.14 0 01.2 0 3.23 3.23 0 002.1 1.3 2.08 2.08 0 001.63-1l.14-.19.1.21s.38.76 1 .8 1.05-.41 1.62-1.28a.14.14 0 01.2 0 .15.15 0 010 .2c-.63 1-1.26 1.44-1.88 1.41a1.54 1.54 0 01-1.11-.77 2.26 2.26 0 01-1.67.94z" fill="#f06351"/><path d="M41.05 29.22l-3.12 1.3 1.15-5.61-7.47 9.72 3.12-1.31-1.14 5.62zM33.7 33l4.11-5.38-.8 4 2-.82-4.12 5.39.81-4z" fill="#111"/><path d="M45.68 18.92a56.19 56.19 0 00-5.06 5.19A31.82 31.82 0 0135.33 29c-.22-.53-1.62-1.51-1.62-1.51s-3.13-2.14-5.19-3.82a35.24 35.24 0 01-3.12-3l-2-.11a22.56 22.56 0 0012 8.8c.87-.14 3.28-1.86 5.08-3.26a56 56 0 005.93-5.89 6 6 0 001.14-2c-1.15.38-1.87.71-1.87.71zM25.81 25.7s-3.81-1.44-5.18-1.82a3.7 3.7 0 00-4 .62 5.09 5.09 0 00-1.73 3.84 6.41 6.41 0 01.48 1.44c.05.48-1.2.43-2 .43s-.91-1.44-.29-3.12A23 23 0 0115 23.4c-5.45 2.83-15 9.35-15 9.35a46.72 46.72 0 018.16.25c5.23.53 4.94 4.66 4.94 4.66a38.45 38.45 0 015.61-1.11c2.11-.15 2.29 2.1 2.29 2.1l.53 3.84a19.16 19.16 0 012.63-2.35 6.06 6.06 0 014.37-1.29z" fill="#f06351"/></svg>